{"title":"Saw II - La soluzione dell'enigma (2005).DVDrip.XviD - Italian E","uid":11691935,"size":1472009196,"categoryP":"video","categoryS":"movies","magnet":"?xt=urn:btih:e3ca8c1b28be9f1570c49ca743408d71ce86a90b&amp;dn=Saw+II+-+La+soluzione+dell%27enigma+%282005%29.DVDrip.XviD+-+Italian+E&amp;tr=udp%3A%2F%2Ftracker.openbittorrent.com%3A80&amp;tr=udp%3A%2F%2Fopen.demonii.com%3A1337&amp;tr=udp%3A%2F%2Ftracker.coppersurfer.tk%3A6969&amp;tr=udp%3A%2F%2Fexodus.desync.com%3A6969","seeders":9,"leechers":2,"uploader":"robbyrs4","files":3,"time":1423581304,"description":"Saw II - La soluzione dell'enigma (2005).DVDrip.XviD - Italian English.Ac3 5.1 Sub Ita.MIRCrew\n\n\n\n[center]\n\n[color=red][b][img]http://s19.postimg.org/rr1b4yhxv/banner_mircrew_2015.png[/img]\n\n[u]NO FOUND ONLY ORIGINAL RELEASE[/u]\n\nSaw II - La soluzione dell'enigma (2005)\n\n[img]http://s19.postimg.org/orsnnf1oz/image.jpg[/img]\n\n\n[URL=http://www.imdb.com/title/tt0432348/][IMG]http://www.userlogos.org/files/logos/Sucka/imdb_new.png[/IMG][/URL]  \n\n[img]http://imageshack.us/a/img534/6946/zcu.gif[/img]\n\nTitolo originale \tSaw II\nLingua originale \tInglese\nPaese di produzione \tUSA\nAnno \t2005\nDurata \t90 min\nRapporto \t1.78:1\nGenere \torrore, thriller\nRegia \tDarren Lynn Bousman\nSceneggiatura \tLeigh Whannell, Darren Lynn Bousman\nProduttore \tGregg Hoffman, Oren Koules, Mark Burg, Daniel Jason Heffner, Peter Block, Jason Costantine, James Wan, Leigh Whannell, Stacey Testro, Greg Copeland\nDistribuzione (Italia) \t01 Distribution\nFotografia \tDavid A. Armstrong\nMontaggio \tKevin Greutert\nEffetti speciali \tTim Good, Bret Culp\nMusiche \tCharlie Clouser\nScenografia \tDavid Hackl\nCostumi \tAlex Kanavagh\n\n[img]http://imageshack.us/a/img4/8946/u96.gif[/img]\n\n\n\n    Morgan Freeman: Dott. Cameron McCarthy\n    Ashley Judd: Lorraine Nelson\n    Kris Kristofferson: Reed Haskett\n    Harry Connick Jr.: Dott. Clay Haskett\n    Nathan Gamble: Sawyer Nelson\n    Cozi Zuehlsdorff: Hazel Haskett\n\n\n\n[img]http://imageshack.us/a/img844/6546/cupz.gif[/img]. \n\nIl film inizia in una stanza buia dove Michael Marks, un informatore della polizia, indossa un dispositivo intorno al collo che se attivato da un timer gli schiaccerebbe la faccia come una tagliola. Per fermare la trappola Michael deve cavarsi un occhio e prendere la chiave posta nell'orbita. Tuttavia non ci riesce e la trappola lo uccide.....\n\n[img]http://imageshack.us/a/img202/6180/4e6.gif[/img]\n\nJigsaw locks a few unlucky people in a booby trapped shelter and they must find a way out before they inhale too much of a lethal nerve gas and die. But they must watch out, for the traps Jigsaw has set in the shelter lead to death also..........\n\n &lt;a href=&quot;\nhttp://s19.postimg.org/v867r8zmb/vlcsnap_2015_02_10_15h04m08s42.png[/img]&quot; rel=&quot;nofollow&quot; target=&quot;_NEW&quot;&gt;\nhttp://s19.postimg.org/v867r8zmb/vlcsnap_2015_02_10_15h04m08s42.png[/img]&lt;/a&gt;\n\n &lt;a href=&quot;\nhttp://s19.postimg.org/ss4edehjn/vlcsnap_2015_02_10_15h04m13s91.png[/img]&quot; rel=&quot;nofollow&quot; target=&quot;_NEW&quot;&gt;\nhttp://s19.postimg.org/ss4edehjn/vlcsnap_2015_02_10_15h04m13s91.png[/img]&lt;/a&gt;\n &lt;a href=&quot;\nhttp://s19.postimg.org/rn5qua5oz/vlcsnap_2015_02_10_15h04m26s226.png[/img]&quot; rel=&quot;nofollow&quot; target=&quot;_NEW&quot;&gt;\nhttp://s19.postimg.org/rn5qua5oz/vlcsnap_2015_02_10_15h04m26s226.png[/img]&lt;/a&gt;\n\n\n\n[IMG]http://img153.imageshack.us/img153/3158/restateinseedblood.gif[/img]\n\n\n[img]http://imgur.com/lvhU6.gif[/img]\n\n\n[img]http://imageshack.us/a/img571/2166/an4p.gif[/img]\n\n\n[spoiler]\nGeneral\nComplete name                            : Saw 2 - La soluzione dell'enigma (2005).ita.eng.sub.ita.MIRCrewSaw 2 - La soluzione dell'enigma (2005).ita.eng.sub.ita.MIRCrew.avi\nFormat                                   : AVI\nFormat/Info                              : Audio Video Interleave\nFile size                                : 1.37 GiB\nDuration                                 : 1h 28mn\nOverall bit rate                         : 2 204 Kbps\nWriting application                      : VirtualDubMod 1.5.4.1 (build 2178/release)\nWriting library                          : VirtualDubMod build 2178/release\n\nVideo\nID                                       : 0\nFormat                                   : MPEG-4 Visual\nFormat profile                           : Advanced Simple@L5\nFormat settings, BVOP                    : 1\nFormat settings, QPel                    : No\nFormat settings, GMC                     : No warppoints\nFormat settings, Matrix                  : Custom\nCodec ID                                 : XVID\nCodec ID/Hint                            : XviD\nDuration                                 : 1h 28mn\nBit rate                                 : 1 299 Kbps\nWidth                                    : 656 pixels\nHeight                                   : 352 pixels\nDisplay aspect ratio                     : 1.864\nFrame rate                               : 25.000 fps\nColor space                              : YUV\nChroma subsampling                       : 4:2:0\nBit depth                                : 8 bits\nScan type                                : Progressive\nCompression mode                         : Lossy\nBits/(Pixel*Frame)                       : 0.225\nStream size                              : 826 MiB (59%)\nWriting library                          : XviD 64\n\nAudio #1\nID                                       : 1\nFormat                                   : AC-3\nFormat/Info                              : Audio Coding 3\nMode extension                           : CM (complete main)\nCodec ID                                 : 2000\nDuration                                 : 1h 28mn\nBit rate mode                            : Constant\nBit rate                                 : 448 Kbps\nChannel(s)                               : 6 channels\nChannel positions                        : Front: L C R, Side: L R, LFE\nSampling rate                            : 48.0 KHz\nBit depth                                : 16 bits\nCompression mode                         : Lossy\nStream size                              : 285 MiB (20%)\nAlignment                                : Split accross interleaves\nInterleave, duration                     : 96 ms (2.40 video frames)\nInterleave, preload duration             : 96 ms\nLanguage                                 : Italian\n\nAudio #2\nID                                       : 2\nFormat                                   : AC-3\nFormat/Info                              : Audio Coding 3\nMode extension                           : CM (complete main)\nCodec ID                                 : 2000\nDuration                                 : 1h 28mn\nBit rate mode                            : Constant\nBit rate                                 : 448 Kbps\nChannel(s)                               : 6 channels\nChannel positions                        : Front: L C R, Side: L R, LFE\nSampling rate                            : 48.0 KHz\nBit depth                                : 16 bits\nCompression mode                         : Lossy\nStream size                              : 285 MiB (20%)\nAlignment                                : Split accross interleaves\nInterleave, duration                     : 96 ms (2.40 video frames)\nInterleave, preload duration             : 96 ms\nLanguage                                 : English\n\n\n[/spoiler]\n\n[/color][/b][/center]\n\n&amp;&amp;e4t67uk","torrent":{"xt":"urn:btih:e3ca8c1b28be9f1570c49ca743408d71ce86a90b","amp;dn":"Saw+II+-+La+soluzione+dell%27enigma+%282005%29.DVDrip.XviD+-+Italian+E","amp;tr":["udp%3A%2F%2Ftracker.openbittorrent.com%3A80","udp%3A%2F%2Fopen.demonii.com%3A1337","udp%3A%2F%2Ftracker.coppersurfer.tk%3A6969","udp%3A%2F%2Fexodus.desync.com%3A6969"],"infoHash":"e3ca8c1b28be9f1570c49ca743408d71ce86a90b","infoHashBuffer":{"type":"Buffer","data":[227,202,140,27,40,190,159,21,112,196,156,167,67,64,141,113,206,134,169,11]},"announce":[],"urlList":[]}}